<?xml version="1.0" encoding="utf-8"?>
<!-- Generator: Adobe Illustrator 18.1.1, SVG Export Plug-In . SVG Version: 6.00 Build 0)  -->
<svg version="1.1" id="Layer_1" xmlns="http://www.w3.org/2000/svg" xmlns:xlink="http://www.w3.org/1999/xlink" x="0px" y="0px"
	 viewBox="0 0 100 100" enable-background="new 0 0 100 100" xml:space="preserve">
<g>
	<path fill="#AEC7E8" d="M72.7,42.3c1.3-1.5,1.8-3.5,1.4-5.5l-0.9-5.1c-0.7-3.9-4.3-7-8.3-7H35.1c-4,0-7.6,3.1-8.3,7L26,36.8
		c-0.3,2,0.2,4,1.4,5.5c1.3,1.5,3.1,2.3,5.2,2.3h34.9C69.6,44.6,71.5,43.8,72.7,42.3z M67.5,42.2H32.6c-2.7,0-4.6-2.2-4.2-4.9
		l0.9-5.1c0.5-2.7,3.1-4.9,5.8-4.9H65c2.7,0,5.4,2.2,5.8,4.9l0.9,5.1C72.2,39.9,70.3,42.2,67.5,42.2z"/>
	<path fill="#AEC7E8" d="M86,46.1c-0.5-0.5-1.7-2.8-2.1-4.8l-3-15.2c-1-5-5.8-8.9-10.9-8.9H30.1c-5.1,0-9.9,3.9-10.9,8.9l-3,15.2
		c-0.4,2-1.6,4.3-2.1,4.8c-2.7,2.7-4,7.6-4,11v7.5c0,3.7,2,6.9,5,8.6v3.8c0,2.8,2.2,5,5,5h7.5c2.8,0,5-2.2,5-5v-2.5h34.9v2.5
		c0,2.8,2.2,5,5,5H80c2.8,0,5-2.2,5-5v-3.8c3-1.7,5-5,5-8.6v-7.5C90,53.7,88.7,48.8,86,46.1z M27.6,77.1h-7.5v-2.5h7.5V77.1z
		 M80,77.1h-7.5v-2.5H80V77.1z M85,64.6c0,2.7-2.2,5-5,5H20.1c-2.7,0-5-2.2-5-5v-7.5c0-2.7,1.1-6.1,2.5-7.5c1.4-1.4,2.9-4.7,3.5-7.4
		l3-15.2c0.5-2.7,3.2-4.9,6-4.9H70c2.7,0,5.4,2.2,6,4.9l3,15.2c0.5,2.7,2.1,6,3.5,7.4c1.4,1.4,2.5,4.7,2.5,7.5V64.6z"/>
	<path fill="#AEC7E8" d="M75,54.6c-2.8,0-5,2.2-5,5s2.2,5,5,5c2.8,0,5-2.2,5-5S77.8,54.6,75,54.6z M75,62.1c-1.4,0-2.5-1.1-2.5-2.5
		s1.1-2.5,2.5-2.5c1.4,0,2.5,1.1,2.5,2.5S76.4,62.1,75,62.1z"/>
	<path fill="#AEC7E8" d="M25.1,54.6c-2.8,0-5,2.2-5,5s2.2,5,5,5c2.8,0,5-2.2,5-5S27.9,54.6,25.1,54.6z M25.1,62.1
		c-1.4,0-2.5-1.1-2.5-2.5s1.1-2.5,2.5-2.5c1.4,0,2.5,1.1,2.5,2.5S26.5,62.1,25.1,62.1z"/>
	<path fill="#AEC7E8" d="M65,57.1H35.1c-1.4,0-2.5,1.1-2.5,2.5v2.5c0,1.4,1.1,2.5,2.5,2.5H65c1.4,0,2.5-1.1,2.5-2.5v-2.5
		C67.5,58.2,66.4,57.1,65,57.1z M65,62.1H35.1v-2.5H65V62.1z"/>
</g>
</svg>
