<?xml version="1.0" encoding="utf-8"?>
<!-- Generator: Adobe Illustrator 18.1.1, SVG Export Plug-In . SVG Version: 6.00 Build 0)  -->
<svg version="1.1" id="Layer_1" xmlns="http://www.w3.org/2000/svg" xmlns:xlink="http://www.w3.org/1999/xlink" x="0px" y="0px"
	 viewBox="0 0 100 100" enable-background="new 0 0 100 100" xml:space="preserve">
<path fill="none" d="M23.9,27.5c-5.6,6.4-8.7,14.5-8.7,23.1H31c0.1-4.4,1.7-8.5,4.3-11.7L23.9,27.5z"/>
<path fill="none" d="M31.2,53H15.3c0.6,8.4,4.1,16.1,10.1,22.1c6,6,13.8,9.5,22.1,10.1V69.2C39,68.2,32.2,61.5,31.2,53z"/>
<path fill="none" d="M47.5,15.8c-8.2,0.6-15.9,4-21.9,9.9l11.4,11.4c2.8-2.6,6.4-4.3,10.5-4.7V15.8z"/>
<path fill="none" d="M74.6,25.9C68,19.4,59.3,15.7,50,15.7v16.5c10,0.3,18,8.4,18,18.5S60,69,50,69.2v16.1c9.3,0,18-3.6,24.6-10.2
	c6.6-6.6,10.2-15.3,10.2-24.6S81.2,32.5,74.6,25.9z"/>
<path fill="#FFFFFF" d="M50,10.8c-22,0-39.8,17.8-39.8,39.8S28,90.3,50,90.3s39.8-17.8,39.8-39.8S72,10.8,50,10.8z M47.5,15.8v16.5
	c-4,0.4-7.6,2.2-10.5,4.7L25.7,25.7C31.6,19.8,39.3,16.4,47.5,15.8z M23.9,27.5l11.4,11.4c-2.7,3.2-4.3,7.2-4.3,11.7H15.2
	C15.2,42,18.3,33.8,23.9,27.5z M47.5,85.2c-8.4-0.6-16.1-4.1-22.1-10.1c-6-6-9.5-13.8-10.1-22.1h15.9c1,8.5,7.8,15.2,16.4,16.1V85.2
	z M49.5,65.3c-0.7,0-1.3-0.1-2-0.2c-6.3-0.9-11.3-5.8-12.3-12.1c-0.1-0.7-0.2-1.5-0.2-2.3c0-0.1,0-0.1,0-0.2c0-3.3,1.2-6.4,3.2-8.8
	c0.5-0.6,1.1-1.2,1.7-1.8c2.1-1.9,4.7-3.1,7.6-3.5c0.7-0.1,1.3-0.2,2-0.2c0.2,0,0.3,0,0.5,0c7.8,0.3,14,6.7,14,14.5S57.8,65,50,65.2
	C49.8,65.3,49.7,65.3,49.5,65.3z M74.6,75.1C68,81.7,59.3,85.3,50,85.3V69.2c10-0.3,18-8.4,18-18.5s-8-18.2-18-18.5V15.7
	c9.3,0,18,3.6,24.6,10.2c6.6,6.6,10.2,15.3,10.2,24.6S81.2,68.6,74.6,75.1z"/>
</svg>
