<?xml version="1.0" encoding="utf-8"?>
<!-- Generator: Adobe Illustrator 18.1.1, SVG Export Plug-In . SVG Version: 6.00 Build 0)  -->
<svg version="1.1" id="Layer_1" xmlns="http://www.w3.org/2000/svg" xmlns:xlink="http://www.w3.org/1999/xlink" x="0px" y="0px"
	 viewBox="0 0 100 100" enable-background="new 0 0 100 100" xml:space="preserve">
<g>
	<path fill="#D62928" d="M65.5,32.4H27.9c-1.4,0-2.5,1.1-2.5,2.5V65c0,1.4,1.1,2.5,2.5,2.5h37.6c1.4,0,2.5-1.1,2.5-2.5V34.9
		C68,33.5,66.9,32.4,65.5,32.4z M65.5,65H27.9V34.9h37.6V65z"/>
	<path fill="#D62928" d="M44.2,44.9v12.5c0,1.4,1.1,2.5,2.5,2.5s2.5-1.1,2.5-2.5v-15c0-1.4-1.1-2.5-2.5-2.5h-2.5
		c-1.4,0-2.5,1.1-2.5,2.5C41.7,43.8,42.8,44.9,44.2,44.9z"/>
	<path fill="#D62928" d="M71.8,32.4c-0.7,0-1.3,0.6-1.3,1.3v32.6c0,0.7,0.6,1.3,1.3,1.3c0.7,0,1.3-0.6,1.3-1.3V33.7
		C73,33,72.5,32.4,71.8,32.4z"/>
	<path fill="#D62928" d="M85.6,47.5c2.8,0,5-2.2,5-5v-7.5c0-5.5-4.5-10-10-10H20.4c-5.5,0-10,4.5-10,10v7.5c0,2.8,2.2,5,5,5
		c1.4,0,2.5,1.1,2.5,2.5s-1.1,2.5-2.5,2.5c-2.8,0-5,2.2-5,5V65c0,5.5,4.5,10,10,10h60.1c5.5,0,10-4.5,10-10v-7.5c0-2.8-2.2-5-5-5
		c-1.4,0-2.5-1.1-2.5-2.5S84.2,47.5,85.6,47.5z M85.6,57.5V65c0,2.8-2.3,5-5,5H20.4c-2.8,0-5-2.3-5-5v-7.5c4.2,0,7.5-3.4,7.5-7.5
		s-3.4-7.5-7.5-7.5v-7.5c0-2.8,2.3-5,5-5h60.1c2.8,0,5,2.3,5,5v7.5c-4.2,0-7.5,3.4-7.5,7.5S81.4,57.5,85.6,57.5z"/>
</g>
</svg>
