<?xml version="1.0" encoding="utf-8"?>
<!-- Generator: Adobe Illustrator 18.1.1, SVG Export Plug-In . SVG Version: 6.00 Build 0)  -->
<svg version="1.1" id="Layer_1" xmlns="http://www.w3.org/2000/svg" xmlns:xlink="http://www.w3.org/1999/xlink" x="0px" y="0px"
	 viewBox="0 0 100 100" enable-background="new 0 0 100 100" xml:space="preserve">
<g>
	<path fill="#FFFFFF" d="M58.5,71.9h5.6c1.5,0,2.8-1.2,2.8-2.8V24.7c0-1.5-1.2-2.8-2.8-2.8h-5.6c-1.5,0-2.8,1.2-2.8,2.8v44.4
		C55.7,70.6,57,71.9,58.5,71.9z"/>
	<path fill="#FFFFFF" d="M77.9,71.9h5.6c1.5,0,2.8-1.2,2.8-2.8V33c0-1.5-1.2-2.8-2.8-2.8h-5.6c-1.5,0-2.8,1.2-2.8,2.8v36.1
		C75.2,70.6,76.4,71.9,77.9,71.9z"/>
	<path fill="#FFFFFF" d="M91.8,77.4H11.3V19.1c0-1.5-1.2-2.8-2.8-2.8c-1.5,0-2.8,1.2-2.8,2.8v61.1C5.8,81.7,7,83,8.5,83h83.3
		c1.5,0,2.8-1.2,2.8-2.8C94.6,78.7,93.4,77.4,91.8,77.4z"/>
	<path fill="#FFFFFF" d="M39.1,71.9h5.6c1.5,0,2.8-1.2,2.8-2.8V35.8c0-1.5-1.2-2.8-2.8-2.8h-5.6c-1.5,0-2.8,1.2-2.8,2.8v33.3
		C36.3,70.6,37.5,71.9,39.1,71.9z"/>
	<path fill="#FFFFFF" d="M19.6,71.9h5.6c1.5,0,2.8-1.2,2.8-2.8V46.9c0-1.5-1.2-2.8-2.8-2.8h-5.6c-1.5,0-2.8,1.2-2.8,2.8v22.2
		C16.9,70.6,18.1,71.9,19.6,71.9z"/>
</g>
</svg>
