<?xml version="1.0" encoding="utf-8"?>
<!-- Generator: Adobe Illustrator 18.1.1, SVG Export Plug-In . SVG Version: 6.00 Build 0)  -->
<svg version="1.1" id="Layer_1" xmlns="http://www.w3.org/2000/svg" xmlns:xlink="http://www.w3.org/1999/xlink" x="0px" y="0px"
	 viewBox="0 0 100 100" enable-background="new 0 0 100 100" xml:space="preserve">
<path fill="#9ED088" d="M88.9,46.8L53.8,11.7c-1-1-2.3-1.5-3.5-1.5s-2.6,0.5-3.5,1.5l-6.8,6.8c-0.7-1.9-2.5-3.3-4.7-3.3h-10
	c-2.8,0-5,2.2-5,5v18l-8.6,8.6c-1.4,1.4-1.9,3.6-1.1,5.5c0.8,1.9,2.6,3.1,4.6,3.1h5v30.1c0,2.8,2.2,5,5,5h50.2c2.8,0,5-2.2,5-5V55.4
	h5c2,0,3.9-1.2,4.6-3.1C90.8,50.4,90.4,48.3,88.9,46.8z M60.3,85.5H40.3V52.9h20.1V85.5z M75.4,50.4v35.1H62.8V52.9
	c0-1.4-1.1-2.5-2.5-2.5H40.3c-1.4,0-2.5,1.1-2.5,2.5v32.6H25.2V50.4h-10l10-10V20.3h10v10l15-15l35.1,35.1H75.4z"/>
</svg>
