<?xml version="1.0" encoding="utf-8"?>
<!-- Generator: Adobe Illustrator 18.1.1, SVG Export Plug-In . SVG Version: 6.00 Build 0)  -->
<svg version="1.1" id="Layer_1" xmlns="http://www.w3.org/2000/svg" xmlns:xlink="http://www.w3.org/1999/xlink" x="0px" y="0px"
	 viewBox="0 0 100 100" enable-background="new 0 0 100 100" xml:space="preserve">
<path fill="#FFFFFF" d="M82.7,70.2L65,52.6c1.7-3.4,2.6-7.3,2.6-11.4c0-14.6-11.8-26.4-26.4-26.4c-14.6,0-26.4,11.8-26.4,26.4
	s11.8,26.4,26.4,26.4c4.1,0,7.9-0.9,11.4-2.6l17.6,17.6c1.7,1.7,4,2.6,6.2,2.6c2.3,0,4.5-0.9,6.2-2.6C86.1,79.2,86.1,73.6,82.7,70.2
	z M19.2,41.2c0-12.1,9.9-22,22-22c12.1,0,22,9.9,22,22s-9.9,22-22,22C29.1,63.2,19.2,53.3,19.2,41.2z"/>
</svg>
