<?xml version="1.0" encoding="utf-8"?>
<!-- Generator: Adobe Illustrator 18.1.1, SVG Export Plug-In . SVG Version: 6.00 Build 0)  -->
<svg version="1.1" id="Layer_1" xmlns="http://www.w3.org/2000/svg" xmlns:xlink="http://www.w3.org/1999/xlink" x="0px" y="0px"
	 viewBox="0 0 100 100" enable-background="new 0 0 100 100" xml:space="preserve">
<g>
	<circle fill="#F57F20" cx="35.2" cy="40.9" r="4"/>
	<path fill="#F57F20" d="M78.5,27.3c-7-5.8-16.2-9-26-9c-2.1,0-4.3,0.2-6.3,0.5c-3-3.6-7.5-5.8-12.3-5.8c-2.9,0-5.3,2.4-5.3,5.3v7.5
		c-5.1,3.7-9,8.5-11.2,13.9h-2.1c-2.9,0-5.3,2.4-5.3,5.3v10.7c0,2.9,2.4,5.3,5.3,5.3h2.1c2.2,5.4,6.1,10.2,11.2,13.9v7.5
		c0,2.9,2.4,5.3,5.3,5.3h8c2.9,0,5.3-2.4,5.3-5.3v-0.3c1.8,0.2,3.5,0.3,5.3,0.3s3.6-0.1,5.3-0.3v0.3c0,2.9,2.4,5.3,5.3,5.3h8
		c2.9,0,5.3-2.4,5.3-5.3v-7.5c8.4-6,13.3-15,13.3-24.5C89.8,41.5,85.8,33.3,78.5,27.3z M71.1,71.9v10.3h-8v-6.8
		c-3.3,1-6.9,1.5-10.7,1.5c-3.7,0-7.3-0.5-10.7-1.5v6.8h-8V71.9c-6.4-3.8-11.1-9.6-12.7-16.3h-6V44.9h6c1.6-6.7,6.3-12.5,12.7-16.3
		V18.2c4.4,0,8.1,2.6,9.8,6.4c2.8-0.7,5.8-1,8.9-1c17.7,0,32,11.9,32,26.7C84.5,59.1,79.2,67,71.1,71.9z"/>
	<rect x="44.5" y="31.6" fill="#F57F20" width="16" height="2.7"/>
</g>
</svg>
