<?xml version="1.0" encoding="utf-8"?>
<!-- Generator: Adobe Illustrator 18.1.1, SVG Export Plug-In . SVG Version: 6.00 Build 0)  -->
<svg version="1.1" id="Layer_1" xmlns="http://www.w3.org/2000/svg" xmlns:xlink="http://www.w3.org/1999/xlink" x="0px" y="0px"
	 viewBox="0 0 100 100" enable-background="new 0 0 100 100" xml:space="preserve">
<g>
	<path fill="#2DA048" d="M49.7,10.2C36.1,10.2,25,21.3,25,35c0,14.9,12.4,19.8,14.9,34.7h19.8C62.1,54.8,74.5,49.9,74.5,35
		C74.5,21.3,63.4,10.2,49.7,10.2z M55.7,64.7h-12C42,58.9,39,54.5,36.2,50.5c-3.5-5.1-6.3-9.1-6.3-15.5c0-10.9,8.9-19.8,19.8-19.8
		c10.9,0,19.8,8.9,19.8,19.8c0,6.4-2.8,10.4-6.3,15.5C60.5,54.5,57.5,58.9,55.7,64.7z"/>
	<path fill="#2DA048" d="M39.8,82.1c0,2.7,2.2,5,5,5H46c0,1.4,1.1,2.5,2.5,2.5H51c1.4,0,2.5-1.1,2.5-2.5h1.2c2.7,0,5-2.2,5-5v-9.9
		H39.8V82.1z M42.3,74.6h14.9v7.4c0,1.4-1.1,2.5-2.5,2.5h-9.9c-1.4,0-2.5-1.1-2.5-2.5V74.6z"/>
</g>
</svg>
