<?xml version="1.0" encoding="utf-8"?>
<!-- Generator: Adobe Illustrator 18.1.1, SVG Export Plug-In . SVG Version: 6.00 Build 0)  -->
<svg version="1.1" id="Layer_1" xmlns="http://www.w3.org/2000/svg" xmlns:xlink="http://www.w3.org/1999/xlink" x="0px" y="0px"
	 viewBox="0 0 1190.6 101.6" enable-background="new 0 0 1190.6 101.6" xml:space="preserve">
<g>
	<path fill="#2BA02C" d="M50.7,10.2C37.1,10.2,26,21.3,26,35c0,14.9,12.4,19.8,14.9,34.7h19.8C63.1,54.8,75.5,49.9,75.5,35
		C75.5,21.3,64.4,10.2,50.7,10.2z M56.7,64.7h-12C43,58.9,40,54.5,37.2,50.5c-3.5-5.1-6.3-9.1-6.3-15.5c0-10.9,8.9-19.8,19.8-19.8
		c10.9,0,19.8,8.9,19.8,19.8c0,6.4-2.8,10.4-6.3,15.5C61.5,54.5,58.5,58.9,56.7,64.7z"/>
	<path fill="#2BA02C" d="M40.8,82.1c0,2.7,2.2,5,5,5H47c0,1.4,1.1,2.5,2.5,2.5H52c1.4,0,2.5-1.1,2.5-2.5h1.2c2.7,0,5-2.2,5-5v-9.9
		H40.8V82.1z M43.3,74.6h14.9v7.4c0,1.4-1.1,2.5-2.5,2.5h-9.9c-1.4,0-2.5-1.1-2.5-2.5V74.6z"/>
</g>
<g>
	<circle fill="#FF7F0E" cx="135.2" cy="42.9" r="4"/>
	<path fill="#FF7F0E" d="M178.5,29.3c-7-5.8-16.2-9-26-9c-2.1,0-4.3,0.2-6.3,0.5c-3-3.6-7.5-5.8-12.3-5.8c-2.9,0-5.3,2.4-5.3,5.3
		v7.5c-5.1,3.7-9,8.5-11.2,13.9h-2.1c-2.9,0-5.3,2.4-5.3,5.3v10.7c0,2.9,2.4,5.3,5.3,5.3h2.1c2.2,5.4,6.1,10.2,11.2,13.9v7.5
		c0,2.9,2.4,5.3,5.3,5.3h8c2.9,0,5.3-2.4,5.3-5.3v-0.3c1.8,0.2,3.5,0.3,5.3,0.3s3.6-0.1,5.3-0.3v0.3c0,2.9,2.4,5.3,5.3,5.3h8
		c2.9,0,5.3-2.4,5.3-5.3v-7.5c8.4-6,13.3-15,13.3-24.5C189.8,43.5,185.8,35.3,178.5,29.3z M171.1,73.9v10.3h-8v-6.8
		c-3.3,1-6.9,1.5-10.7,1.5c-3.7,0-7.3-0.5-10.7-1.5v6.8h-8V73.9c-6.4-3.8-11.1-9.6-12.7-16.3h-6V46.9h6c1.6-6.7,6.3-12.5,12.7-16.3
		V20.2c4.4,0,8.1,2.6,9.8,6.4c2.8-0.7,5.8-1,8.9-1c17.7,0,32,11.9,32,26.7C184.5,61.1,179.2,69,171.1,73.9z"/>
	<rect x="144.5" y="33.6" fill="#FF7F0E" width="16" height="2.7"/>
</g>
<path fill="#1E77B4" d="M283,37.3c1.7-1.8,2.8-4.2,2.8-6.9c0-5.5-4.5-10.1-10.1-10.1c-5.5,0-10.1,4.5-10.1,10.1
	c0,2.7,1.1,5.1,2.8,6.9c-0.9,0.5-1.8,1.2-2.6,1.9c-1.7-2.9-4.1-5.2-7.1-6.8c2.7-2.3,4.4-5.7,4.4-9.6c0-6.9-5.6-12.6-12.6-12.6
	c-6.9,0-12.6,5.6-12.6,12.6c0,3.8,1.7,7.2,4.4,9.6c-2.9,1.5-5.4,3.9-7.1,6.8c-0.8-0.7-1.7-1.3-2.6-1.9c1.7-1.8,2.8-4.2,2.8-6.9
	c0-5.5-4.5-10.1-10.1-10.1s-10.1,4.5-10.1,10.1c0,2.7,1.1,5.1,2.8,6.9c-4.6,2.6-7.8,7.5-7.8,13.2v10.1c0,2.8,2.3,5,5,5v12.6
	c0,2.8,2.3,5,5,5h10.1c2.8,0,5-2.3,5-5v-8.2c0.7,0.4,1.6,0.7,2.5,0.7v15.1c0,2.8,2.3,5,5,5h15.1c2.8,0,5-2.3,5-5V70.6
	c0.9,0,1.8-0.2,2.5-0.7v8.2c0,2.8,2.3,5,5,5h10.1c2.8,0,5-2.3,5-5V65.6c2.8,0,5-2.3,5-5V50.5C290.8,44.8,287.7,39.9,283,37.3z
	 M225.4,25.3c2.8,0,5,2.3,5,5c0,2.8-2.3,5-5,5c-2.8,0-5-2.3-5-5C220.4,27.6,222.6,25.3,225.4,25.3z M233,48v2.5h-1.3
	c-0.7,0-1.3,0.6-1.3,1.3v26.4h-3.8V60.6c0-0.7-0.6-1.3-1.3-1.3s-1.3,0.6-1.3,1.3v17.6h-3.8V51.8c0-0.7-0.6-1.3-1.3-1.3
	s-1.3,0.6-1.3,1.3v8.8h-2.5V50.5c0-5.6,4.5-10.1,10.1-10.1c3.2,0,6.1,1.5,7.9,3.9C233.1,45.5,233,46.7,233,48z M250.6,15.3
	c4.2,0,7.5,3.4,7.5,7.5c0,4.2-3.4,7.5-7.5,7.5c-4.2,0-7.5-3.4-7.5-7.5C243,18.7,246.4,15.3,250.6,15.3z M263.2,65.6h-2.5V49.2
	c0-0.7-0.6-1.3-1.3-1.3s-1.3,0.6-1.3,1.3v36.5h-6.3V65.6c0-0.7-0.6-1.3-1.3-1.3c-0.7,0-1.3,0.6-1.3,1.3v20.1H243V49.2
	c0-0.7-0.6-1.3-1.3-1.3c-0.7,0-1.3,0.6-1.3,1.3v16.4H238V48c0-6.9,5.6-12.6,12.6-12.6S263.2,41,263.2,48V65.6z M275.7,25.3
	c2.8,0,5,2.3,5,5c0,2.8-2.3,5-5,5c-2.8,0-5-2.3-5-5C270.7,27.6,273,25.3,275.7,25.3z M285.8,60.6h-2.5v-8.8c0-0.7-0.6-1.3-1.3-1.3
	s-1.3,0.6-1.3,1.3v26.4H277V60.6c0-0.7-0.6-1.3-1.3-1.3c-0.7,0-1.3,0.6-1.3,1.3v17.6h-3.8V51.8c0-0.7-0.6-1.3-1.3-1.3h-1.3V48
	c0-1.3-0.1-2.5-0.4-3.7c1.8-2.4,4.7-3.9,7.9-3.9c5.6,0,10.1,4.5,10.1,10.1V60.6z"/>
<g>
	<path fill="#D62628" d="M365.5,30.4h-37.6c-1.4,0-2.5,1.1-2.5,2.5V63c0,1.4,1.1,2.5,2.5,2.5h37.6c1.4,0,2.5-1.1,2.5-2.5V32.9
		C368,31.5,366.9,30.4,365.5,30.4z M365.5,63h-37.6V32.9h37.6V63z"/>
	<path fill="#D62628" d="M344.2,42.9v12.5c0,1.4,1.1,2.5,2.5,2.5s2.5-1.1,2.5-2.5v-15c0-1.4-1.1-2.5-2.5-2.5h-2.5
		c-1.4,0-2.5,1.1-2.5,2.5C341.7,41.8,342.8,42.9,344.2,42.9z"/>
	<path fill="#D62628" d="M371.8,30.4c-0.7,0-1.3,0.6-1.3,1.3v32.6c0,0.7,0.6,1.3,1.3,1.3c0.7,0,1.3-0.6,1.3-1.3V31.7
		C373,31,372.5,30.4,371.8,30.4z"/>
	<path fill="#D62628" d="M385.6,45.5c2.8,0,5-2.2,5-5v-7.5c0-5.5-4.5-10-10-10h-60.1c-5.5,0-10,4.5-10,10v7.5c0,2.8,2.2,5,5,5
		c1.4,0,2.5,1.1,2.5,2.5s-1.1,2.5-2.5,2.5c-2.8,0-5,2.2-5,5V63c0,5.5,4.5,10,10,10h60.1c5.5,0,10-4.5,10-10v-7.5c0-2.8-2.2-5-5-5
		c-1.4,0-2.5-1.1-2.5-2.5S384.2,45.5,385.6,45.5z M385.6,55.5V63c0,2.8-2.3,5-5,5h-60.1c-2.8,0-5-2.3-5-5v-7.5
		c4.2,0,7.5-3.4,7.5-7.5s-3.4-7.5-7.5-7.5v-7.5c0-2.8,2.3-5,5-5h60.1c2.8,0,5,2.3,5,5v7.5c-4.2,0-7.5,3.4-7.5,7.5
		S381.4,55.5,385.6,55.5z"/>
</g>
<g>
	<path fill="#FFFFFF" d="M1058.5,72.9h5.6c1.5,0,2.8-1.2,2.8-2.8V25.7c0-1.5-1.2-2.8-2.8-2.8h-5.6c-1.5,0-2.8,1.2-2.8,2.8v44.4
		C1055.7,71.6,1057,72.9,1058.5,72.9z"/>
	<path fill="#FFFFFF" d="M1077.9,72.9h5.6c1.5,0,2.8-1.2,2.8-2.8V34c0-1.5-1.2-2.8-2.8-2.8h-5.6c-1.5,0-2.8,1.2-2.8,2.8v36.1
		C1075.2,71.6,1076.4,72.9,1077.9,72.9z"/>
	<path fill="#FFFFFF" d="M1091.8,78.4h-80.5V20.1c0-1.5-1.2-2.8-2.8-2.8c-1.5,0-2.8,1.2-2.8,2.8v61.1c0,1.5,1.2,2.8,2.8,2.8h83.3
		c1.5,0,2.8-1.2,2.8-2.8C1094.6,79.7,1093.4,78.4,1091.8,78.4z"/>
	<path fill="#FFFFFF" d="M1039.1,72.9h5.6c1.5,0,2.8-1.2,2.8-2.8V36.8c0-1.5-1.2-2.8-2.8-2.8h-5.6c-1.5,0-2.8,1.2-2.8,2.8v33.3
		C1036.3,71.6,1037.5,72.9,1039.1,72.9z"/>
	<path fill="#FFFFFF" d="M1019.6,72.9h5.6c1.5,0,2.8-1.2,2.8-2.8V47.9c0-1.5-1.2-2.8-2.8-2.8h-5.6c-1.5,0-2.8,1.2-2.8,2.8v22.2
		C1016.9,71.6,1018.1,72.9,1019.6,72.9z"/>
</g>
<g>
	<path fill="#FFFFFF" d="M975.1,46.6h-49.5c-1.7,0-3.1,1.2-3.1,2.8v5.6c0,1.5,1.4,2.8,3.1,2.8h49.5c1.7,0,3.1-1.2,3.1-2.8v-5.6
		C978.1,47.8,976.8,46.6,975.1,46.6z"/>
	<path fill="#FFFFFF" d="M975.1,63.9h-49.5c-1.7,0-3.1,1.2-3.1,2.8v5.6c0,1.5,1.4,2.8,3.1,2.8h49.5c1.7,0,3.1-1.2,3.1-2.8v-5.6
		C978.1,65.2,976.8,63.9,975.1,63.9z"/>
	<path fill="#FFFFFF" d="M975.1,29.2h-49.5c-1.7,0-3.1,1.2-3.1,2.8v5.6c0,1.5,1.4,2.8,3.1,2.8h49.5c1.7,0,3.1-1.2,3.1-2.8V32
		C978.1,30.5,976.8,29.2,975.1,29.2z"/>
</g>
<g>
	<path fill="#AEC7E8" d="M472.7,41.3c1.3-1.5,1.8-3.5,1.4-5.5l-0.9-5.1c-0.7-3.9-4.3-7-8.3-7h-29.9c-4,0-7.6,3.1-8.3,7l-0.9,5.1
		c-0.3,2,0.2,4,1.4,5.5c1.3,1.5,3.1,2.3,5.2,2.3h34.9C469.6,43.6,471.5,42.8,472.7,41.3z M467.5,41.2h-34.9c-2.7,0-4.6-2.2-4.2-4.9
		l0.9-5.1c0.5-2.7,3.1-4.9,5.8-4.9H465c2.7,0,5.4,2.2,5.8,4.9l0.9,5.1C472.2,38.9,470.3,41.2,467.5,41.2z"/>
	<path fill="#AEC7E8" d="M486,45.1c-0.5-0.5-1.7-2.8-2.1-4.8l-3-15.2c-1-5-5.8-8.9-10.9-8.9h-39.9c-5.1,0-9.9,3.9-10.9,8.9l-3,15.2
		c-0.4,2-1.6,4.3-2.1,4.8c-2.7,2.7-4,7.6-4,11v7.5c0,3.7,2,6.9,5,8.6v3.8c0,2.8,2.2,5,5,5h7.5c2.8,0,5-2.2,5-5v-2.5h34.9v2.5
		c0,2.8,2.2,5,5,5h7.5c2.8,0,5-2.2,5-5v-3.8c3-1.7,5-5,5-8.6v-7.5C490,52.7,488.7,47.8,486,45.1z M427.6,76.1h-7.5v-2.5h7.5V76.1z
		 M480,76.1h-7.5v-2.5h7.5V76.1z M485,63.6c0,2.7-2.2,5-5,5h-59.9c-2.7,0-5-2.2-5-5v-7.5c0-2.7,1.1-6.1,2.5-7.5
		c1.4-1.4,2.9-4.7,3.5-7.4l3-15.2c0.5-2.7,3.2-4.9,6-4.9H470c2.7,0,5.4,2.2,6,4.9l3,15.2c0.5,2.7,2.1,6,3.5,7.4
		c1.4,1.4,2.5,4.7,2.5,7.5V63.6z"/>
	<path fill="#AEC7E8" d="M475,53.6c-2.8,0-5,2.2-5,5s2.2,5,5,5c2.8,0,5-2.2,5-5S477.8,53.6,475,53.6z M475,61.1
		c-1.4,0-2.5-1.1-2.5-2.5s1.1-2.5,2.5-2.5c1.4,0,2.5,1.1,2.5,2.5S476.4,61.1,475,61.1z"/>
	<path fill="#AEC7E8" d="M425.1,53.6c-2.8,0-5,2.2-5,5s2.2,5,5,5c2.8,0,5-2.2,5-5S427.9,53.6,425.1,53.6z M425.1,61.1
		c-1.4,0-2.5-1.1-2.5-2.5s1.1-2.5,2.5-2.5c1.4,0,2.5,1.1,2.5,2.5S426.5,61.1,425.1,61.1z"/>
	<path fill="#AEC7E8" d="M465,56.1h-29.9c-1.4,0-2.5,1.1-2.5,2.5v2.5c0,1.4,1.1,2.5,2.5,2.5H465c1.4,0,2.5-1.1,2.5-2.5v-2.5
		C467.5,57.2,466.4,56.1,465,56.1z M465,61.1h-29.9v-2.5H465V61.1z"/>
</g>
<path fill="#98DF89" d="M588.9,46.8l-35.1-35.1c-1-1-2.3-1.5-3.5-1.5s-2.6,0.5-3.5,1.5l-6.8,6.8c-0.7-1.9-2.5-3.3-4.7-3.3h-10
	c-2.8,0-5,2.2-5,5v18l-8.6,8.6c-1.4,1.4-1.9,3.6-1.1,5.5c0.8,1.9,2.6,3.1,4.6,3.1h5v30.1c0,2.8,2.2,5,5,5h50.2c2.8,0,5-2.2,5-5V55.4
	h5c2,0,3.9-1.2,4.6-3.1C590.8,50.4,590.4,48.3,588.9,46.8z M560.3,85.5h-20.1V52.9h20.1V85.5z M575.4,50.4v35.1h-12.5V52.9
	c0-1.4-1.1-2.5-2.5-2.5h-20.1c-1.4,0-2.5,1.1-2.5,2.5v32.6h-12.5V50.4h-10l10-10V20.3h10v10l15-15l35.1,35.1H575.4z"/>
<path fill="#FFBB78" d="M686.3,33.9H671v-5.1c0-5.6-4.6-10.2-10.2-10.2h-20.4c-5.6,0-10.2,4.6-10.2,10.2v5.1h-15.3
	c-2.8,0-5.1,2.3-5.1,5.1v35.7c0,2.8,2.3,5.1,5.1,5.1h71.4c2.8,0,5.1-2.3,5.1-5.1V39C691.4,36.1,689.1,33.9,686.3,33.9z M635.3,28.8
	c0-2.8,2.3-5.1,5.1-5.1h20.4c2.8,0,5.1,2.3,5.1,5.1v5.1h-2.6v-5.1c0-1.4-1.1-2.6-2.6-2.6h-20.4c-1.4,0-2.6,1.1-2.6,2.6v5.1h-2.6
	V28.8z M660.8,28.8v5.1h-20.4v-5.1H660.8z M686.3,39v35.7h-71.4V39H686.3z M654.4,46.6V53h6.4v7.7h-6.4V67h-7.7v-6.4h-6.4V53h6.4
	v-6.4H654.4 M654.4,44.1h-7.7c-1.4,0-2.6,1.1-2.6,2.6v3.8h-3.8c-1.4,0-2.6,1.1-2.6,2.6v7.7c0,1.4,1.1,2.6,2.6,2.6h3.8V67
	c0,1.4,1.1,2.6,2.6,2.6h7.7c1.4,0,2.6-1.1,2.6-2.6v-3.8h3.8c1.4,0,2.6-1.1,2.6-2.6V53c0-1.4-1.1-2.6-2.6-2.6H657v-3.8
	C657,45.2,655.8,44.1,654.4,44.1L654.4,44.1z"/>
<path fill="#FEC904" d="M750,10.2c-22.2,0-40.3,18-40.3,40.3s18,40.3,40.3,40.3s40.3-18,40.3-40.3S772.3,10.2,750,10.2z M779.6,31.3
	c3.5,5.3,5.4,11.5,5.6,17.9h-17.6c-0.1-5.3-0.6-10.3-1.5-14.9C771.3,33.6,775.9,32.6,779.6,31.3z M775,25.6c1.1,1.1,2.2,2.3,3.1,3.6
	c-0.1,0-0.3,0.1-0.4,0.1c-3.5,1.1-7.6,2-12,2.6c-1.4-6.3-3.6-11.5-6.1-15.3C765.3,18.2,770.6,21.2,775,25.6z M735,49.2
	c0.1-5.1,0.6-10,1.4-14.6c4.3,0.5,8.8,0.7,13.6,0.7s9.4-0.3,13.6-0.7c0.9,4.5,1.4,9.5,1.4,14.6H735z M765.1,51.8
	c-0.1,5.1-0.6,10-1.4,14.6c-4.3-0.5-8.8-0.7-13.6-0.7s-9.4,0.3-13.6,0.7c-0.9-4.5-1.4-9.5-1.4-14.6H765.1z M750,15.3
	c1.9,0,3.8,0.2,5.6,0.4c1.6,1.7,3.2,4.2,4.5,7.3c1.2,2.7,2.2,5.8,3,9.1c-4.1,0.5-8.6,0.7-13.1,0.7c-4.5,0-9-0.2-13.1-0.7
	c0.8-3.3,1.8-6.4,3-9.1c1.4-3.1,2.9-5.6,4.5-7.3C746.3,15.4,748.2,15.3,750,15.3z M725.1,25.6c4.4-4.4,9.7-7.4,15.4-9
	c-2.6,3.8-4.7,9.1-6.1,15.3c-4.4-0.6-8.5-1.5-12-2.6c-0.1,0-0.3-0.1-0.4-0.1C723,27.9,724,26.7,725.1,25.6z M720.5,31.3
	c3.7,1.3,8.3,2.3,13.4,3c-0.9,4.6-1.4,9.6-1.5,14.9h-17.6C715.1,42.8,717,36.7,720.5,31.3z M720.5,69.7c-3.5-5.3-5.4-11.5-5.6-17.9
	h17.6c0.1,5.3,0.6,10.3,1.5,14.9C728.8,67.4,724.2,68.4,720.5,69.7z M725.1,75.4c-1.1-1.1-2.2-2.3-3.1-3.6c0.1,0,0.3-0.1,0.4-0.1
	c3.5-1.1,7.6-2,12-2.6c1.4,6.3,3.6,11.5,6.1,15.3C734.8,82.8,729.5,79.8,725.1,75.4z M750,85.7c-1.9,0-3.8-0.2-5.6-0.4
	c-1.6-1.7-3.2-4.2-4.5-7.3c-1.2-2.7-2.2-5.8-3-9.1c4.1-0.5,8.6-0.7,13.1-0.7c4.5,0,9,0.2,13.1,0.7c-0.8,3.3-1.8,6.4-3,9.1
	c-1.4,3.1-2.9,5.6-4.5,7.3C753.8,85.6,751.9,85.7,750,85.7z M775,75.4c-4.4,4.4-9.7,7.4-15.4,9c2.6-3.8,4.7-9.1,6.1-15.3
	c4.4,0.6,8.5,1.5,12,2.6c0.1,0,0.3,0.1,0.4,0.1C777.1,73.1,776.1,74.3,775,75.4z M779.6,69.7c-3.7-1.3-8.3-2.3-13.4-3
	c0.9-4.6,1.4-9.6,1.5-14.9h17.6C785,58.2,783.1,64.4,779.6,69.7z"/>
<g>
	<circle fill="#0066CC" cx="850.4" cy="36.4" r="5.6"/>
	<circle fill="#0066CC" cx="850.4" cy="53.1" r="5.6"/>
	<circle fill="#0066CC" cx="850.4" cy="69.8" r="5.6"/>
</g>
<path fill="#FFFFFF" d="M1178.7,69.2L1161,51.6c1.7-3.4,2.6-7.3,2.6-11.4c0-14.6-11.8-26.4-26.4-26.4c-14.6,0-26.4,11.8-26.4,26.4
	s11.8,26.4,26.4,26.4c4.1,0,7.9-0.9,11.4-2.6l17.6,17.6c1.7,1.7,4,2.6,6.2,2.6c2.3,0,4.5-0.9,6.2-2.6
	C1182.1,78.2,1182.1,72.6,1178.7,69.2z M1115.2,40.2c0-12.1,9.9-22,22-22c12.1,0,22,9.9,22,22s-9.9,22-22,22
	C1125.1,62.2,1115.2,52.3,1115.2,40.2z"/>
</svg>
