<?xml version="1.0" encoding="utf-8"?>
<!-- Generator: Adobe Illustrator 18.1.1, SVG Export Plug-In . SVG Version: 6.00 Build 0)  -->
<svg version="1.1" id="Layer_1" xmlns="http://www.w3.org/2000/svg" xmlns:xlink="http://www.w3.org/1999/xlink" x="0px" y="0px"
	 viewBox="0 0 100 100" enable-background="new 0 0 100 100" xml:space="preserve">
<g>
	<path fill="#FFFFFF" d="M75.1,44.6H25.6c-1.7,0-3.1,1.2-3.1,2.8v5.6c0,1.5,1.4,2.8,3.1,2.8h49.5c1.7,0,3.1-1.2,3.1-2.8v-5.6
		C78.1,45.8,76.8,44.6,75.1,44.6z"/>
	<path fill="#FFFFFF" d="M75.1,61.9H25.6c-1.7,0-3.1,1.2-3.1,2.8v5.6c0,1.5,1.4,2.8,3.1,2.8h49.5c1.7,0,3.1-1.2,3.1-2.8v-5.6
		C78.1,63.2,76.8,61.9,75.1,61.9z"/>
	<path fill="#FFFFFF" d="M75.1,27.2H25.6c-1.7,0-3.1,1.2-3.1,2.8v5.6c0,1.5,1.4,2.8,3.1,2.8h49.5c1.7,0,3.1-1.2,3.1-2.8V30
		C78.1,28.5,76.8,27.2,75.1,27.2z"/>
</g>
</svg>
