<?xml version="1.0" encoding="utf-8"?>
<!-- Generator: Adobe Illustrator 18.1.1, SVG Export Plug-In . SVG Version: 6.00 Build 0)  -->
<svg version="1.1" id="Layer_1" xmlns="http://www.w3.org/2000/svg" xmlns:xlink="http://www.w3.org/1999/xlink" x="0px" y="0px"
	 viewBox="0 0 100 100" enable-background="new 0 0 100 100" xml:space="preserve">
<path fill="#FCBB78" d="M86.3,34.9H71v-5.1c0-5.6-4.6-10.2-10.2-10.2H40.4c-5.6,0-10.2,4.6-10.2,10.2v5.1H14.9
	c-2.8,0-5.1,2.3-5.1,5.1v35.7c0,2.8,2.3,5.1,5.1,5.1h71.4c2.8,0,5.1-2.3,5.1-5.1V40C91.4,37.1,89.1,34.9,86.3,34.9z M35.3,29.8
	c0-2.8,2.3-5.1,5.1-5.1h20.4c2.8,0,5.1,2.3,5.1,5.1v5.1h-2.6v-5.1c0-1.4-1.1-2.6-2.6-2.6H40.4c-1.4,0-2.6,1.1-2.6,2.6v5.1h-2.6V29.8
	z M60.8,29.8v5.1H40.4v-5.1H60.8z M86.3,40v35.7H14.9V40H86.3z M54.4,47.6V54h6.4v7.7h-6.4V68h-7.7v-6.4h-6.4V54h6.4v-6.4H54.4
	 M54.4,45.1h-7.7c-1.4,0-2.6,1.1-2.6,2.6v3.8h-3.8c-1.4,0-2.6,1.1-2.6,2.6v7.7c0,1.4,1.1,2.6,2.6,2.6h3.8V68c0,1.4,1.1,2.6,2.6,2.6
	h7.7c1.4,0,2.6-1.1,2.6-2.6v-3.8h3.8c1.4,0,2.6-1.1,2.6-2.6V54c0-1.4-1.1-2.6-2.6-2.6H57v-3.8C57,46.2,55.8,45.1,54.4,45.1
	L54.4,45.1z"/>
</svg>
