<?xml version="1.0" encoding="utf-8"?>
<!-- Generator: Adobe Illustrator 18.1.1, SVG Export Plug-In . SVG Version: 6.00 Build 0)  -->
<svg version="1.1" id="Layer_1" xmlns="http://www.w3.org/2000/svg" xmlns:xlink="http://www.w3.org/1999/xlink" x="0px" y="0px"
	 viewBox="0 0 100 100" enable-background="new 0 0 100 100" xml:space="preserve">
<path fill="#1F78B5" d="M83,37.3c1.7-1.8,2.8-4.2,2.8-6.9c0-5.5-4.5-10.1-10.1-10.1c-5.5,0-10.1,4.5-10.1,10.1
	c0,2.7,1.1,5.1,2.8,6.9c-0.9,0.5-1.8,1.2-2.6,1.9c-1.7-2.9-4.1-5.2-7.1-6.8c2.7-2.3,4.4-5.7,4.4-9.6c0-6.9-5.6-12.6-12.6-12.6
	c-6.9,0-12.6,5.6-12.6,12.6c0,3.8,1.7,7.2,4.4,9.6c-2.9,1.5-5.4,3.9-7.1,6.8c-0.8-0.7-1.7-1.3-2.6-1.9c1.7-1.8,2.8-4.2,2.8-6.9
	c0-5.5-4.5-10.1-10.1-10.1s-10.1,4.5-10.1,10.1c0,2.7,1.1,5.1,2.8,6.9c-4.6,2.6-7.8,7.5-7.8,13.2v10.1c0,2.8,2.3,5,5,5v12.6
	c0,2.8,2.3,5,5,5h10.1c2.8,0,5-2.3,5-5v-8.2c0.7,0.4,1.6,0.7,2.5,0.7v15.1c0,2.8,2.3,5,5,5h15.1c2.8,0,5-2.3,5-5V70.6
	c0.9,0,1.8-0.2,2.5-0.7v8.2c0,2.8,2.3,5,5,5h10.1c2.8,0,5-2.3,5-5V65.6c2.8,0,5-2.3,5-5V50.5C90.8,44.8,87.7,39.9,83,37.3z
	 M25.4,25.3c2.8,0,5,2.3,5,5c0,2.8-2.3,5-5,5c-2.8,0-5-2.3-5-5C20.4,27.6,22.6,25.3,25.4,25.3z M33,48v2.5h-1.3
	c-0.7,0-1.3,0.6-1.3,1.3v26.4h-3.8V60.6c0-0.7-0.6-1.3-1.3-1.3s-1.3,0.6-1.3,1.3v17.6h-3.8V51.8c0-0.7-0.6-1.3-1.3-1.3
	s-1.3,0.6-1.3,1.3v8.8h-2.5V50.5c0-5.6,4.5-10.1,10.1-10.1c3.2,0,6.1,1.5,7.9,3.9C33.1,45.5,33,46.7,33,48z M50.6,15.3
	c4.2,0,7.5,3.4,7.5,7.5c0,4.2-3.4,7.5-7.5,7.5c-4.2,0-7.5-3.4-7.5-7.5C43,18.7,46.4,15.3,50.6,15.3z M63.2,65.6h-2.5V49.2
	c0-0.7-0.6-1.3-1.3-1.3s-1.3,0.6-1.3,1.3v36.5h-6.3V65.6c0-0.7-0.6-1.3-1.3-1.3c-0.7,0-1.3,0.6-1.3,1.3v20.1H43V49.2
	c0-0.7-0.6-1.3-1.3-1.3c-0.7,0-1.3,0.6-1.3,1.3v16.4H38V48c0-6.9,5.6-12.6,12.6-12.6S63.2,41,63.2,48V65.6z M75.7,25.3
	c2.8,0,5,2.3,5,5c0,2.8-2.3,5-5,5c-2.8,0-5-2.3-5-5C70.7,27.6,73,25.3,75.7,25.3z M85.8,60.6h-2.5v-8.8c0-0.7-0.6-1.3-1.3-1.3
	s-1.3,0.6-1.3,1.3v26.4H77V60.6c0-0.7-0.6-1.3-1.3-1.3c-0.7,0-1.3,0.6-1.3,1.3v17.6h-3.8V51.8c0-0.7-0.6-1.3-1.3-1.3h-1.3V48
	c0-1.3-0.1-2.5-0.4-3.7c1.8-2.4,4.7-3.9,7.9-3.9c5.6,0,10.1,4.5,10.1,10.1V60.6z"/>
</svg>
