<?xml version="1.0" encoding="utf-8"?>
<!-- Generator: Adobe Illustrator 18.1.1, SVG Export Plug-In . SVG Version: 6.00 Build 0)  -->
<svg version="1.1" id="Layer_1" xmlns="http://www.w3.org/2000/svg" xmlns:xlink="http://www.w3.org/1999/xlink" x="0px" y="0px"
	 viewBox="0 0 100 100" enable-background="new 0 0 100 100" xml:space="preserve">
<path fill="#FFCA08" d="M50,10.2c-22.2,0-40.3,18-40.3,40.3s18,40.3,40.3,40.3s40.3-18,40.3-40.3S72.3,10.2,50,10.2z M79.6,31.3
	c3.5,5.3,5.4,11.5,5.6,17.9H67.6c-0.1-5.3-0.6-10.3-1.5-14.9C71.3,33.6,75.9,32.6,79.6,31.3z M75,25.6c1.1,1.1,2.2,2.3,3.1,3.6
	c-0.1,0-0.3,0.1-0.4,0.1c-3.5,1.1-7.6,2-12,2.6c-1.4-6.3-3.6-11.5-6.1-15.3C65.3,18.2,70.6,21.2,75,25.6z M35,49.2
	c0.1-5.1,0.6-10,1.4-14.6c4.3,0.5,8.8,0.7,13.6,0.7s9.4-0.3,13.6-0.7c0.9,4.5,1.4,9.5,1.4,14.6H35z M65.1,51.8
	c-0.1,5.1-0.6,10-1.4,14.6c-4.3-0.5-8.8-0.7-13.6-0.7s-9.4,0.3-13.6,0.7c-0.9-4.5-1.4-9.5-1.4-14.6H65.1z M50,15.3
	c1.9,0,3.8,0.2,5.6,0.4c1.6,1.7,3.2,4.2,4.5,7.3c1.2,2.7,2.2,5.8,3,9.1c-4.1,0.5-8.6,0.7-13.1,0.7c-4.5,0-9-0.2-13.1-0.7
	c0.8-3.3,1.8-6.4,3-9.1c1.4-3.1,2.9-5.6,4.5-7.3C46.3,15.4,48.2,15.3,50,15.3z M25.1,25.6c4.4-4.4,9.7-7.4,15.4-9
	c-2.6,3.8-4.7,9.1-6.1,15.3c-4.4-0.6-8.5-1.5-12-2.6c-0.1,0-0.3-0.1-0.4-0.1C23,27.9,24,26.7,25.1,25.6z M20.5,31.3
	c3.7,1.3,8.3,2.3,13.4,3c-0.9,4.6-1.4,9.6-1.5,14.9H14.9C15.1,42.8,17,36.7,20.5,31.3z M20.5,69.7c-3.5-5.3-5.4-11.5-5.6-17.9h17.6
	c0.1,5.3,0.6,10.3,1.5,14.9C28.8,67.4,24.2,68.4,20.5,69.7z M25.1,75.4C24,74.3,23,73.1,22,71.8c0.1,0,0.3-0.1,0.4-0.1
	c3.5-1.1,7.6-2,12-2.6c1.4,6.3,3.6,11.5,6.1,15.3C34.8,82.8,29.5,79.8,25.1,75.4z M50,85.7c-1.9,0-3.8-0.2-5.6-0.4
	c-1.6-1.7-3.2-4.2-4.5-7.3c-1.2-2.7-2.2-5.8-3-9.1c4.1-0.5,8.6-0.7,13.1-0.7c4.5,0,9,0.2,13.1,0.7c-0.8,3.3-1.8,6.4-3,9.1
	c-1.4,3.1-2.9,5.6-4.5,7.3C53.8,85.6,51.9,85.7,50,85.7z M75,75.4c-4.4,4.4-9.7,7.4-15.4,9c2.6-3.8,4.7-9.1,6.1-15.3
	c4.4,0.6,8.5,1.5,12,2.6c0.1,0,0.3,0.1,0.4,0.1C77.1,73.1,76.1,74.3,75,75.4z M79.6,69.7c-3.7-1.3-8.3-2.3-13.4-3
	c0.9-4.6,1.4-9.6,1.5-14.9h17.6C85,58.2,83.1,64.4,79.6,69.7z"/>
</svg>
